<svg width="259" height="32" viewBox="0 0 259 32" fill="none" xmlns="http://www.w3.org/2000/svg">
<path d="M7 14.8333H11.6667" stroke="#E5A277" stroke-width="3" stroke-linecap="round" stroke-linejoin="round"/>
<path d="M9.3335 12.5V17.1667" stroke="#E5A277" stroke-width="3" stroke-linecap="round" stroke-linejoin="round"/>
<path d="M17.5 16H17.5121" stroke="#E5A277" stroke-width="3" stroke-linecap="round" stroke-linejoin="round"/>
<path d="M21 13.6667H21.0121" stroke="#E5A277" stroke-width="3" stroke-linecap="round" stroke-linejoin="round"/>
<path d="M20.2068 7.83325H7.7935C6.63882 7.83352 5.52525 8.26186 4.66804 9.03546C3.81082 9.80906 3.27085 10.873 3.1525 12.0216C3.1455 12.0823 3.14083 12.1394 3.13266 12.1989C3.03816 12.9853 2.3335 18.8653 2.3335 20.6666C2.3335 21.5948 2.70225 22.4851 3.35862 23.1415C4.015 23.7978 4.90524 24.1666 5.8335 24.1666C7.00016 24.1666 7.5835 23.5833 8.16683 22.9999L9.8165 21.3503C10.254 20.9126 10.8474 20.6667 11.4662 20.6666H16.5342C17.153 20.6667 17.7463 20.9126 18.1838 21.3503L19.8335 22.9999C20.4168 23.5833 21.0002 24.1666 22.1668 24.1666C23.0951 24.1666 23.9853 23.7978 24.6417 23.1415C25.2981 22.4851 25.6668 21.5948 25.6668 20.6666C25.6668 18.8641 24.9622 12.9853 24.8677 12.1989C24.8595 12.1406 24.8548 12.0823 24.8478 12.0228C24.7297 10.8739 24.1899 9.80973 23.3326 9.03589C22.4754 8.26205 21.3617 7.83355 20.2068 7.83325Z" stroke="#E5A277" stroke-width="3" stroke-linecap="round" stroke-linejoin="round"/>
<path d="M37 28V24H33V16H37V12H33V4H37V0H53V4H57V12H53V16H61V24H57V28H37ZM45 12H53V4H41V8H45V12ZM37 24H53V20H45V16H37V24ZM69.7 28V24H65.7V0H73.7V8H89.7V12H93.7V24H89.7V28H69.7ZM73.7 24H85.7V12H73.7V24ZM110.4 4V0H118.4V4H110.4ZM102.4 28V24H110.4V12H106.4V8H118.4V24H126.4V28H102.4ZM143.1 28V12H135.1V8H143.1V0H151.1V8H159.1V12H151.1V28H143.1ZM163.8 28V24H183.8V20H167.8V16H163.8V12H167.8V8H187.8V12H171.8V16H187.8V20H191.8V24H187.8V28H163.8Z" fill="#E5A277"/>
<path d="M216.625 19.125H219.75V22.25H222.875V25.375H204.125V22.25H201V16H204.125V12.875H201V6.625H204.125V3.5H213.5V6.625H216.625V12.875H213.5V16H216.625V19.125ZM207.25 12.875H210.375V6.625H207.25V12.875ZM213.5 19.125H210.375V16H207.25V22.25H213.5V19.125ZM222.875 16V19.125H219.75V16H222.875Z" fill="#7F776C"/>
<path d="M242.667 4.33325V6.66659" stroke="#E38B75" stroke-width="3" stroke-linecap="round" stroke-linejoin="round"/>
<path d="M247.333 4.33325V6.66659" stroke="#E38B75" stroke-width="3" stroke-linecap="round" stroke-linejoin="round"/>
<path d="M249.667 11.3333C249.976 11.3333 250.273 11.4562 250.492 11.675C250.71 11.8938 250.833 12.1905 250.833 12.4999V21.8333C250.833 23.0709 250.342 24.2579 249.466 25.1331C248.591 26.0083 247.404 26.4999 246.167 26.4999H239.167C237.929 26.4999 236.742 26.0083 235.867 25.1331C234.992 24.2579 234.5 23.0709 234.5 21.8333V12.4999C234.5 12.1905 234.623 11.8938 234.842 11.675C235.061 11.4562 235.357 11.3333 235.667 11.3333H252C253.238 11.3333 254.425 11.8249 255.3 12.7001C256.175 13.5753 256.667 14.7622 256.667 15.9999C256.667 17.2376 256.175 18.4246 255.3 19.2998C254.425 20.1749 253.238 20.6666 252 20.6666H250.833" stroke="#E38B75" stroke-width="3" stroke-linecap="round" stroke-linejoin="round"/>
<path d="M238 4.33325V6.66659" stroke="#E38B75" stroke-width="3" stroke-linecap="round" stroke-linejoin="round"/>
</svg>
